#Comment line ignore any data following # character 
#Hierarchical Translation and Rotation (.htr) file 
[Header]	
#Header keywords are followed by a single value 
FileType HTR		#Single word string
DataType HTRS		#Translation followed by rotation and scale data
FileVersion 1		#integer
NumSegments 84		#integer
NumFrames 2		#integer
DataFrameRate 30		#integer, data frame rate in this file
EulerRotationOrder ZYX
CalibrationUnits mm
RotationUnits Degrees
GlobalAxisofGravity Y
BoneLengthAxis Y
ScaleFactor 1.00
[SegmentNames&Hierarchy]
#CHILD	PARENT
MASTER GLOBAL
root MASTER
chest root
L_mid_tent01 root
R_mid_tent01 root
spine01 root
Bip01_Neck chest
L_humerus chest
R_humerus chest
weapon_bone chest
Bip01_Head Bip01_Neck
eye_left_bone Bip01_Head
eye_right_bone Bip01_Head
L_forearm L_humerus
L_front_hand L_forearm
L_weapon_bone L_forearm
L_front_hand01_01 L_front_hand
L_front_hand02_01 L_front_hand
L_front_hand03_01 L_front_hand
L_front_hand01_02 L_front_hand01_01
L_front_hand02_02 L_front_hand02_01
L_front_hand03_02 L_front_hand03_01
R_forearm R_humerus
R_front_hand R_forearm
R_weapon_bone R_forearm
R_front_hand01_01 R_front_hand
R_front_hand02_01 R_front_hand
R_front_hand03_01 R_front_hand
R_front_hand01_02 R_front_hand01_01
R_front_hand02_02 R_front_hand02_01
R_front_hand03_02 R_front_hand03_01
null_rope01_connect L_mid_tent01
Rope1_Seg01 null_rope01_connect
Rope1_Seg02 Rope1_Seg01
Rope1_Seg03 Rope1_Seg02
Rope1_Seg04 Rope1_Seg03
Rope1_Seg05 Rope1_Seg04
Rope1_Seg06 Rope1_Seg05
Rope1_Seg07 Rope1_Seg06
Rope1_Seg09 Rope1_Seg07
L_mid_hand01 Rope1_Seg09
L_mid_hand02 Rope1_Seg09
L_mid_hand03 Rope1_Seg09
null_rope02_connect R_mid_tent01
Rope2_Seg01 null_rope02_connect
Rope2_Seg02 Rope2_Seg01
Rope2_Seg03 Rope2_Seg02
Rope2_Seg04 Rope2_Seg03
Rope2_Seg05 Rope2_Seg04
Rope2_Seg06 Rope2_Seg05
Rope2_Seg07 Rope2_Seg06
Rope2_Seg09 Rope2_Seg07
R_mid_hand01 Rope2_Seg09
R_mid_hand02 Rope2_Seg09
R_mid_hand03 Rope2_Seg09
spine02 spine01
spine03 spine02
pelvis spine03
null_rope03_connect pelvis
null_rope04_connect pelvis
Rope3_Seg01 null_rope03_connect
Rope3_Seg02 Rope3_Seg01
Rope3_Seg03 Rope3_Seg02
Rope3_Seg04 Rope3_Seg03
Rope3_Seg05 Rope3_Seg04
Rope3_Seg06 Rope3_Seg05
Rope3_Seg07 Rope3_Seg06
Rope3_Seg08 Rope3_Seg07
Rope3_Seg09 Rope3_Seg08
R_rear_hand01 Rope3_Seg09
R_rear_hand02 Rope3_Seg09
R_rear_hand03 Rope3_Seg09
Rope4_Seg01 null_rope04_connect
Rope4_Seg02 Rope4_Seg01
Rope4_Seg03 Rope4_Seg02
Rope4_Seg04 Rope4_Seg03
Rope4_Seg05 Rope4_Seg04
Rope4_Seg06 Rope4_Seg05
Rope4_Seg07 Rope4_Seg06
Rope4_Seg08 Rope4_Seg07
Rope4_Seg09 Rope4_Seg08
L_rear_hand01 Rope4_Seg09
L_rear_hand02 Rope4_Seg09
L_rear_hand03 Rope4_Seg09
[BasePosition]
#SegmentName Tx, Ty, Tz, Rx, Ry, Rz, BoneLength
MASTER 0.000000 0.000000 0.000000 -90.000000 0.000000 0.000000 10.000000 
root 0.000000 0.000000 0.000000 0.000000 0.000000 0.000000 10.000000 
chest 0.000000 0.000000 0.000000 0.000000 0.000000 0.000000 10.000000 
L_mid_tent01 0.000000 0.000000 0.000000 0.000000 0.000000 0.000000 10.000000 
R_mid_tent01 0.000000 0.000000 0.000000 0.000000 0.000000 0.000000 10.000000 
spine01 0.000000 0.000000 0.000000 0.000000 0.000000 0.000000 10.000000 
Bip01_Neck 0.000000 0.000000 0.000000 0.000000 0.000000 0.000000 10.000000 
L_humerus 0.000000 0.000000 0.000000 0.000000 0.000000 0.000000 10.000000 
R_humerus 0.000000 0.000000 0.000000 0.000000 0.000000 0.000000 10.000000 
weapon_bone 0.000000 0.000000 0.000000 0.000000 0.000000 0.000000 10.000000 
Bip01_Head 0.000000 0.000000 0.000000 0.000000 0.000000 0.000000 10.000000 
eye_left_bone 0.000000 0.000000 0.000000 0.000000 0.000000 0.000000 10.000000 
eye_right_bone 0.000000 0.000000 0.000000 0.000000 0.000000 0.000000 10.000000 
L_forearm 0.000000 0.000000 0.000000 0.000000 0.000000 0.000000 10.000000 
L_front_hand 0.000000 0.000000 0.000000 0.000000 0.000000 0.000000 10.000000 
L_weapon_bone 0.000000 0.000000 0.000000 0.000000 0.000000 0.000000 10.000000 
L_front_hand01_01 0.000000 0.000000 0.000000 0.000000 0.000000 0.000000 10.000000 
L_front_hand02_01 0.000000 0.000000 0.000000 0.000000 0.000000 0.000000 10.000000 
L_front_hand03_01 0.000000 0.000000 0.000000 0.000000 0.000000 0.000000 10.000000 
L_front_hand01_02 0.000000 0.000000 0.000000 0.000000 0.000000 0.000000 10.000000 
L_front_hand02_02 0.000000 0.000000 0.000000 0.000000 0.000000 0.000000 10.000000 
L_front_hand03_02 0.000000 0.000000 0.000000 0.000000 0.000000 0.000000 10.000000 
R_forearm 0.000000 0.000000 0.000000 0.000000 0.000000 0.000000 10.000000 
R_front_hand 0.000000 0.000000 0.000000 0.000000 0.000000 0.000000 10.000000 
R_weapon_bone 0.000000 0.000000 0.000000 0.000000 0.000000 0.000000 10.000000 
R_front_hand01_01 0.000000 0.000000 0.000000 0.000000 0.000000 0.000000 10.000000 
R_front_hand02_01 0.000000 0.000000 0.000000 0.000000 0.000000 0.000000 10.000000 
R_front_hand03_01 0.000000 0.000000 0.000000 0.000000 0.000000 0.000000 10.000000 
R_front_hand01_02 0.000000 0.000000 0.000000 0.000000 0.000000 0.000000 10.000000 
R_front_hand02_02 0.000000 0.000000 0.000000 0.000000 0.000000 0.000000 10.000000 
R_front_hand03_02 0.000000 0.000000 0.000000 0.000000 0.000000 0.000000 10.000000 
null_rope01_connect 0.000000 0.000000 0.000000 0.000000 0.000000 0.000000 10.000000 
Rope1_Seg01 0.000000 0.000000 0.000000 0.000000 0.000000 0.000000 10.000000 
Rope1_Seg02 0.000000 0.000000 0.000000 0.000000 0.000000 0.000000 10.000000 
Rope1_Seg03 0.000000 0.000000 0.000000 0.000000 0.000000 0.000000 10.000000 
Rope1_Seg04 0.000000 0.000000 0.000000 0.000000 0.000000 0.000000 10.000000 
Rope1_Seg05 0.000000 0.000000 0.000000 0.000000 0.000000 0.000000 10.000000 
Rope1_Seg06 0.000000 0.000000 0.000000 0.000000 0.000000 0.000000 10.000000 
Rope1_Seg07 0.000000 0.000000 0.000000 0.000000 0.000000 0.000000 10.000000 
Rope1_Seg09 0.000000 0.000000 0.000000 0.000000 0.000000 0.000000 10.000000 
L_mid_hand01 0.000000 0.000000 0.000000 0.000000 0.000000 0.000000 10.000000 
L_mid_hand02 0.000000 0.000000 0.000000 0.000000 0.000000 0.000000 10.000000 
L_mid_hand03 0.000000 0.000000 0.000000 0.000000 0.000000 0.000000 10.000000 
null_rope02_connect 0.000000 0.000000 0.000000 0.000000 0.000000 0.000000 10.000000 
Rope2_Seg01 0.000000 0.000000 0.000000 0.000000 0.000000 0.000000 10.000000 
Rope2_Seg02 0.000000 0.000000 0.000000 0.000000 0.000000 0.000000 10.000000 
Rope2_Seg03 0.000000 0.000000 0.000000 0.000000 0.000000 0.000000 10.000000 
Rope2_Seg04 0.000000 0.000000 0.000000 0.000000 0.000000 0.000000 10.000000 
Rope2_Seg05 0.000000 0.000000 0.000000 0.000000 0.000000 0.000000 10.000000 
Rope2_Seg06 0.000000 0.000000 0.000000 0.000000 0.000000 0.000000 10.000000 
Rope2_Seg07 0.000000 0.000000 0.000000 0.000000 0.000000 0.000000 10.000000 
Rope2_Seg09 0.000000 0.000000 0.000000 0.000000 0.000000 0.000000 10.000000 
R_mid_hand01 0.000000 0.000000 0.000000 0.000000 0.000000 0.000000 10.000000 
R_mid_hand02 0.000000 0.000000 0.000000 0.000000 0.000000 0.000000 10.000000 
R_mid_hand03 0.000000 0.000000 0.000000 0.000000 0.000000 0.000000 10.000000 
spine02 0.000000 0.000000 0.000000 0.000000 0.000000 0.000000 10.000000 
spine03 0.000000 0.000000 0.000000 0.000000 0.000000 0.000000 10.000000 
pelvis 0.000000 0.000000 0.000000 0.000000 0.000000 0.000000 10.000000 
null_rope03_connect 0.000000 0.000000 0.000000 0.000000 0.000000 0.000000 10.000000 
null_rope04_connect 0.000000 0.000000 0.000000 0.000000 0.000000 0.000000 10.000000 
Rope3_Seg01 0.000000 0.000000 0.000000 0.000000 0.000000 0.000000 10.000000 
Rope3_Seg02 0.000000 0.000000 0.000000 0.000000 0.000000 0.000000 10.000000 
Rope3_Seg03 0.000000 0.000000 0.000000 0.000000 0.000000 0.000000 10.000000 
Rope3_Seg04 0.000000 0.000000 0.000000 0.000000 0.000000 0.000000 10.000000 
Rope3_Seg05 0.000000 0.000000 0.000000 0.000000 0.000000 0.000000 10.000000 
Rope3_Seg06 0.000000 0.000000 0.000000 0.000000 0.000000 0.000000 10.000000 
Rope3_Seg07 0.000000 0.000000 0.000000 0.000000 0.000000 0.000000 10.000000 
Rope3_Seg08 0.000000 0.000000 0.000000 0.000000 0.000000 0.000000 10.000000 
Rope3_Seg09 0.000000 0.000000 0.000000 0.000000 0.000000 0.000000 10.000000 
R_rear_hand01 0.000000 0.000000 0.000000 0.000000 0.000000 0.000000 10.000000 
R_rear_hand02 0.000000 0.000000 0.000000 0.000000 0.000000 0.000000 10.000000 
R_rear_hand03 0.000000 0.000000 0.000000 0.000000 0.000000 0.000000 10.000000 
Rope4_Seg01 0.000000 0.000000 0.000000 0.000000 0.000000 0.000000 10.000000 
Rope4_Seg02 0.000000 0.000000 0.000000 0.000000 0.000000 0.000000 10.000000 
Rope4_Seg03 0.000000 0.000000 0.000000 0.000000 0.000000 0.000000 10.000000 
Rope4_Seg04 0.000000 0.000000 0.000000 0.000000 0.000000 0.000000 10.000000 
Rope4_Seg05 0.000000 0.000000 0.000000 0.000000 0.000000 0.000000 10.000000 
Rope4_Seg06 0.000000 0.000000 0.000000 0.000000 0.000000 0.000000 10.000000 
Rope4_Seg07 0.000000 0.000000 0.000000 0.000000 0.000000 0.000000 10.000000 
Rope4_Seg08 0.000000 0.000000 0.000000 0.000000 0.000000 0.000000 10.000000 
Rope4_Seg09 0.000000 0.000000 0.000000 0.000000 0.000000 0.000000 10.000000 
L_rear_hand01 0.000000 0.000000 0.000000 0.000000 0.000000 0.000000 10.000000 
L_rear_hand02 0.000000 0.000000 0.000000 0.000000 0.000000 0.000000 10.000000 
L_rear_hand03 0.000000 0.000000 0.000000 0.000000 0.000000 0.000000 10.000000 
#Beginning of Data. Separated by tabs
#Fr	Tx	Ty	Tz	Rx	Ry	Rz	SF
[MASTER]
69 -309.581696 -2590.428467 0.629899 0.001660 0.001660 0.001660 2608.861816
70 -307.317200 -2644.030762 0.653887 0.001660 0.001660 0.001660 2661.830811
[root]
69 -16.502304 -62.821960 1490.533691 -93.468178 -33.634678 -89.745895 1491.948242
70 -16.502323 -62.821960 1494.550049 -92.848915 -34.390049 -89.792313 1495.960693
[chest]
69 -84.512650 -34.090519 0.000000 -2.204083 0.610597 171.620514 91.129311
70 -84.512650 -34.090519 0.000000 -2.130147 0.607607 171.704147 91.129311
[L_mid_tent01]
69 27.299496 22.177649 -249.918274 -1.379272 36.511189 66.497528 252.381165
70 27.299496 22.177652 -249.918274 -1.379268 36.511192 66.497536 252.381165
[R_mid_tent01]
69 23.228794 24.509907 226.238495 173.895706 -30.891880 58.389252 228.744751
70 23.228794 24.509907 226.238495 173.895706 -30.891874 58.389244 228.744751
[spine01]
69 -0.361383 -0.195265 0.000000 0.001845 0.001451 13.654368 0.410763
70 -0.361383 -0.195265 0.000000 0.001845 0.001451 13.654368 0.410763
[Bip01_Neck]
69 165.484543 71.581718 0.000119 176.643677 -1.657967 43.431911 180.302734
70 165.484543 71.581718 0.000119 176.643677 -1.657967 43.431911 180.302734
[L_humerus]
69 -13.983130 -135.272980 -120.471481 164.612854 64.134789 -103.788994 181.680161
70 -13.983130 -135.272980 -120.471481 160.903854 67.352814 -107.454994 181.680161
[R_humerus]
69 -13.983309 -135.273102 125.287651 -172.241974 -59.502525 -93.374596 184.909012
70 -13.983309 -135.273102 125.287651 -172.391266 -63.344322 -92.862198 184.909012
[weapon_bone]
69 235.964890 -300.705902 0.000000 0.000000 -89.951546 -128.212341 382.234833
70 235.964890 -300.705902 0.000000 0.000000 -89.951546 -128.212341 382.234833
[Bip01_Head]
69 213.444504 185.715622 11.776999 1.181380 0.526990 -43.549927 283.174072
70 213.444504 185.715622 11.776999 2.731231 1.460176 -43.720894 283.174072
[eye_left_bone]
69 -24.626970 125.451866 -64.772606 0.000000 -90.000000 -99.840431 143.318359
70 -24.626970 125.451866 -64.772606 0.000000 -90.000000 -99.840431 143.318359
[eye_right_bone]
69 -24.626970 125.451866 64.327362 0.000000 -89.965736 80.156380 143.117676
70 -24.626970 125.451866 64.327362 0.000000 -89.965736 80.156380 143.117676
[L_forearm]
69 322.776093 0.000000 -0.000119 0.000119 -0.002344 -95.807457 322.776093
70 322.776093 0.000000 -0.000119 0.000119 -0.002344 -95.807457 322.776093
[L_front_hand]
69 241.149185 -0.042021 -3.300071 149.893951 -1.837326 -27.423067 241.171753
70 241.149185 -0.042021 -3.300071 149.893951 -1.837326 -27.423067 241.171753
[L_weapon_bone]
69 156.183838 0.000000 0.000000 0.000014 0.000007 0.000001 156.183838
70 156.183838 0.000000 0.000000 0.000014 0.000007 0.000001 156.183838
[L_front_hand01_01]
69 86.095154 20.947098 -0.655860 -0.366594 -0.477154 75.385574 88.609184
70 86.095154 20.947098 -0.655860 -0.366594 -0.477154 75.385574 88.609184
[L_front_hand02_01]
69 86.935165 -11.437475 24.513514 154.399796 -59.883835 -61.369587 91.046425
70 86.935165 -11.437475 24.513514 154.399796 -59.883835 -61.369587 91.046425
[L_front_hand03_01]
69 86.637497 -14.123976 -20.424902 -153.913849 58.118122 -62.702866 90.126129
70 86.637497 -14.123976 -20.424902 -153.913849 58.118122 -62.702866 90.126129
[L_front_hand01_02]
69 71.020905 -0.000179 0.000030 0.000334 -0.002323 -106.379684 71.020905
70 71.020905 -0.000179 0.000030 0.000334 -0.002323 -106.379684 71.020905
[L_front_hand02_02]
69 71.020927 -0.000119 0.000060 0.000334 -0.002323 -106.379684 71.020927
70 71.020927 -0.000119 0.000060 0.000334 -0.002323 -106.379684 71.020927
[L_front_hand03_02]
69 71.020905 -0.000060 0.000060 0.000334 -0.002323 -106.379684 71.020905
70 71.020905 -0.000060 0.000060 0.000334 -0.002323 -106.379684 71.020905
[R_forearm]
69 322.776428 -0.000060 0.000030 0.209481 0.012956 -94.541199 322.776428
70 322.776428 -0.000060 0.000030 0.209504 0.012586 -94.339050 322.776428
[R_front_hand]
69 238.847015 -0.006795 2.210259 -8.879457 -10.642941 -26.315098 238.857239
70 238.847015 -0.006795 2.210259 -8.879457 -10.642941 -26.315098 238.857239
[R_weapon_bone]
69 155.664093 0.002503 -0.000030 0.003487 0.001180 -90.988930 155.664078
70 155.664093 0.002503 -0.000030 0.003487 0.001180 -90.988930 155.664078
[R_front_hand01_01]
69 87.624611 14.231146 22.918642 -154.633484 -59.950607 61.746033 91.683487
70 87.624611 14.231146 22.918642 -154.633499 -59.950619 61.746044 91.683487
[R_front_hand02_01]
69 89.356956 14.367283 -19.491137 154.602661 58.302849 63.744389 92.579636
70 89.356956 14.367283 -19.491137 154.602661 58.302849 63.744389 92.579636
[R_front_hand03_01]
69 87.286232 -22.307278 -0.143439 0.162155 -0.423168 -75.767921 90.091743
70 87.286232 -22.307278 -0.143439 0.162155 -0.423168 -75.767921 90.091743
[R_front_hand01_02]
69 71.020905 0.000060 0.000119 0.002323 -0.000334 106.381714 71.020905
70 71.020905 0.000060 0.000119 0.002323 -0.000334 106.381714 71.020905
[R_front_hand02_02]
69 71.020844 -0.000030 -0.000119 0.002323 -0.000334 106.381714 71.020836
70 71.020844 -0.000030 -0.000119 0.002323 -0.000334 106.381714 71.020836
[R_front_hand03_02]
69 71.020905 0.000000 0.000030 0.002323 -0.000334 106.381714 71.020905
70 71.020905 0.000000 0.000030 0.002323 -0.000334 106.381714 71.020905
[null_rope01_connect]
69 328.732483 0.000000 -0.000238 -126.904701 -50.414379 -175.935394 328.732483
70 328.732483 0.000000 -0.000238 -125.861130 -50.970585 -176.312851 328.732483
[Rope1_Seg01]
69 -0.000020 0.000002 0.000008 114.484940 12.070333 -160.523849 0.000022
70 -0.000020 0.000002 0.000006 115.240303 13.147490 -158.735504 0.000021
[Rope1_Seg02]
69 139.999863 -0.000179 0.000000 21.644800 -37.616257 -4.815511 139.999863
70 139.999863 -0.000179 0.000000 23.323830 -39.889008 -4.905092 139.999863
[Rope1_Seg03]
69 139.999924 0.000060 -0.000060 0.275382 -23.579655 9.159437 139.999924
70 139.999924 0.000060 -0.000060 -0.129021 -23.698345 10.026928 139.999924
[Rope1_Seg04]
69 139.999924 -0.000060 -0.000119 -0.793653 -11.373676 1.397859 139.999924
70 139.999924 -0.000060 -0.000119 -0.950191 -11.314903 1.731015 139.999924
[Rope1_Seg05]
69 139.999832 0.000119 -0.000060 -2.304130 -13.557107 -3.954635 139.999832
70 139.999832 0.000119 -0.000060 -2.735633 -13.997733 -3.082072 139.999832
[Rope1_Seg06]
69 139.999954 0.000119 -0.000060 -3.589506 -13.089677 -4.309242 139.999954
70 139.999954 0.000119 -0.000060 -4.230473 -13.485032 -3.575269 139.999954
[Rope1_Seg07]
69 139.999985 0.000060 0.000000 -3.196584 -8.684307 -2.906713 139.999985
70 139.999985 0.000060 0.000000 -3.685782 -8.783775 -2.514440 139.999985
[Rope1_Seg09]
69 121.602913 0.000119 -0.000089 -89.793175 -1.359789 0.847147 121.602913
70 121.602913 0.000119 -0.000089 -89.793175 -1.359789 0.847147 121.602913
[L_mid_hand01]
69 103.859421 1.038730 8.195221 130.544373 -67.584534 -38.866943 104.187431
70 103.859421 1.038730 8.195221 130.544373 -67.584534 -38.866943 104.187431
[L_mid_hand02]
69 105.572853 -4.139662 -10.864139 -168.923172 43.409309 -73.498886 106.211075
70 105.572853 -4.139662 -10.864139 -168.923172 43.409309 -73.498886 106.211075
[L_mid_hand03]
69 104.641464 17.579376 -3.913581 -6.012627 17.808174 74.893669 106.179977
70 104.641464 17.579376 -3.913581 -6.012627 17.808174 74.893669 106.179977
[null_rope02_connect]
69 328.732849 0.000179 -0.000119 -98.663948 60.756424 15.077480 328.732849
70 328.732849 0.000179 -0.000119 -98.735916 60.377697 14.126304 328.732849
[Rope2_Seg01]
69 0.000074 0.000008 0.000000 -179.771759 24.573120 -45.257290 0.000075
70 0.000075 0.000006 0.000000 -175.152496 29.003054 -46.311810 0.000075
[Rope2_Seg02]
69 139.999741 -0.000060 -0.000119 83.012863 -13.222940 -31.886690 139.999756
70 139.999741 -0.000060 -0.000119 67.304565 -18.737663 -29.560024 139.999756
[Rope2_Seg03]
69 140.000107 0.000030 0.000000 5.273377 -29.716715 4.089266 140.000107
70 140.000107 0.000030 0.000000 7.103954 -30.021475 1.357312 140.000107
[Rope2_Seg04]
69 139.999802 0.000000 -0.000060 -1.846282 -12.746881 8.841309 139.999802
70 139.999802 0.000000 -0.000060 -0.921940 -14.135000 6.837820 139.999802
[Rope2_Seg05]
69 139.999985 -0.000060 0.000119 -1.197007 -6.070587 9.555789 139.999985
70 139.999985 -0.000060 0.000119 -0.751049 -8.183469 7.731783 139.999985
[Rope2_Seg06]
69 139.999893 -0.000030 -0.000119 -0.150667 -4.111348 4.655316 139.999893
70 139.999893 -0.000030 -0.000119 -0.083238 -5.198205 3.833086 139.999893
[Rope2_Seg07]
69 139.999893 0.000060 -0.000060 0.036479 -2.661033 2.761501 139.999893
70 139.999893 0.000060 -0.000060 0.028956 -3.313690 2.306621 139.999893
[Rope2_Seg09]
69 121.338966 0.000089 -0.000060 33.793236 -1.359788 -0.847141 121.338966
70 121.338966 0.000089 -0.000060 33.793236 -1.359788 -0.847141 121.338966
[R_mid_hand01]
69 104.680779 11.144459 -10.335981 -16.212059 45.237240 70.462852 105.778534
70 104.680779 11.144459 -10.335981 -16.212063 45.237247 70.462852 105.778534
[R_mid_hand02]
69 104.070427 2.443552 8.231699 49.067387 -67.749794 39.286469 104.424065
70 104.070427 2.443552 8.231699 49.067368 -67.749771 39.286453 104.424065
[R_mid_hand03]
69 106.028137 -11.221827 -5.996406 -177.101105 15.551026 -76.585571 106.788818
70 106.028137 -11.221827 -5.996406 -177.101105 15.551026 -76.585571 106.788818
[spine02]
69 129.756927 0.001550 0.000119 -1.023899 -3.926965 6.770993 129.756927
70 129.756927 0.001550 0.000119 -1.023899 -3.926965 6.770993 129.756927
[spine03]
69 78.613846 0.087372 -4.898873 1.040681 4.146420 4.212376 78.766380
70 78.613846 0.087372 -4.898873 1.040681 4.146420 4.212376 78.766380
[pelvis]
69 169.435242 0.051022 0.000000 0.019518 -0.190233 -10.721436 169.435257
70 169.435242 0.051022 0.000000 0.019518 -0.190233 -10.721436 169.435257
[null_rope03_connect]
69 -1.257226 -2.466202 137.391083 -149.996338 -86.358360 -100.191154 137.418976
70 -1.257226 -2.466202 137.391083 -149.134628 -86.960426 -100.302658 137.418976
[null_rope04_connect]
69 -1.259640 -2.480268 -137.844437 -149.996338 -86.358360 -100.191154 137.872513
70 -1.259640 -2.480268 -137.844437 -149.134628 -86.960426 -100.302658 137.872513
[Rope3_Seg01]
69 -0.000020 0.000284 -0.000144 -141.483307 -28.961502 -57.619961 0.000319
70 -0.000019 0.000289 -0.000146 -142.112183 -30.262157 -57.580078 0.000325
[Rope3_Seg02]
69 139.999924 -0.000119 0.000060 -3.106561 -12.099969 -29.873619 139.999924
70 139.999924 -0.000119 0.000060 -3.554492 -11.876832 -30.062206 139.999924
[Rope3_Seg03]
69 139.999924 -0.000119 0.000119 -117.974564 -10.240072 -44.166584 139.999924
70 139.999924 -0.000119 0.000119 -118.012108 -9.690896 -45.019295 139.999924
[Rope3_Seg04]
69 139.999924 0.000119 0.000000 -20.831097 18.384571 5.059091 139.999924
70 139.999924 0.000119 0.000000 -19.413601 18.100065 5.324020 139.999924
[Rope3_Seg05]
69 139.999924 -0.000238 0.000060 -8.802132 18.437967 8.698442 139.999924
70 139.999924 -0.000238 0.000060 -8.846236 16.900509 7.182318 139.999924
[Rope3_Seg06]
69 139.999893 -0.000119 -0.000060 -1.927342 18.270294 12.493581 139.999893
70 139.999893 -0.000119 -0.000060 -2.833923 17.976814 10.951770 139.999893
[Rope3_Seg07]
69 139.999771 0.000060 -0.000119 0.368759 9.077082 7.557629 139.999771
70 139.999771 0.000060 -0.000119 0.122953 9.465548 7.401320 139.999771
[Rope3_Seg08]
69 139.999985 -0.000060 0.000000 0.592703 4.906214 4.082185 139.999985
70 139.999985 -0.000060 0.000000 0.512832 5.235838 4.135234 139.999985
[Rope3_Seg09]
69 90.185997 -0.000179 -0.000060 89.793228 -1.359877 -0.847183 90.185997
70 90.185997 -0.000179 -0.000060 89.793228 -1.359877 -0.847183 90.185997
[R_rear_hand01]
69 103.366196 -6.073594 -10.757982 -177.714203 24.565960 -73.910950 104.101845
70 103.366196 -6.073594 -10.757982 -177.714203 24.565960 -73.910950 104.101845
[R_rear_hand02]
69 100.509819 12.039542 -7.992327 -12.874829 36.868488 72.167213 101.543350
70 100.509819 12.039542 -7.992327 -12.874829 36.868488 72.167213 101.543350
[R_rear_hand03]
69 101.539970 5.215704 5.435467 71.484581 -71.816628 21.513813 101.819031
70 101.539970 5.215704 5.435467 71.484581 -71.816628 21.513813 101.819031
[Rope4_Seg01]
69 0.000000 0.000000 0.000000 92.730568 -52.290104 -148.763290 0.000000
70 0.000000 0.000000 0.000000 93.266205 -52.145199 -149.371384 0.000000
[Rope4_Seg02]
69 139.999985 0.000060 0.000119 27.093718 -26.433401 17.628151 139.999985
70 139.999985 0.000060 0.000119 27.975725 -26.937262 17.489054 139.999985
[Rope4_Seg03]
69 139.999924 0.000000 -0.000238 25.058990 -10.547697 26.344881 139.999924
70 139.999924 0.000000 -0.000238 25.690018 -10.440649 26.799557 139.999924
[Rope4_Seg04]
69 139.999985 0.000000 0.000119 14.520538 -2.344478 24.719952 139.999985
70 139.999985 0.000000 0.000119 14.227415 -2.136662 23.967375 139.999985
[Rope4_Seg05]
69 139.999802 -0.000060 -0.000119 9.378040 1.906809 30.333134 139.999802
70 139.999802 -0.000060 -0.000119 9.518843 1.443533 29.733162 139.999802
[Rope4_Seg06]
69 139.999924 0.000000 0.000060 1.458751 3.153924 12.729580 139.999924
70 139.999924 0.000000 0.000060 1.674197 3.102197 12.978898 139.999924
[Rope4_Seg07]
69 139.999802 0.000000 0.000000 0.163963 1.810421 6.502242 139.999802
70 139.999802 0.000000 0.000000 0.255908 1.822369 6.632565 139.999802
[Rope4_Seg08]
69 139.999924 0.000000 0.000119 -1.622729 0.981600 3.501882 139.999924
70 139.999924 0.000000 0.000119 -1.585105 1.001472 3.589342 139.999924
[Rope4_Seg09]
69 90.185791 0.000060 0.000060 -135.617828 2.228885 0.850567 90.185791
70 90.185791 0.000060 0.000060 -135.617828 2.228885 0.850567 90.185791
[L_rear_hand01]
69 101.696655 -8.392275 -7.654577 -12.874829 -36.868488 107.832764 102.329041
70 101.696655 -8.392275 -7.654577 -12.874834 -36.868492 107.832779 102.329041
[L_rear_hand02]
69 102.726799 -1.568258 5.773216 71.484581 71.816628 158.486160 102.900848
70 102.726799 -1.568258 5.773216 71.484581 71.816628 158.486160 102.900848
[L_rear_hand03]
69 104.552910 9.721220 -10.420293 -177.714203 -24.565960 -106.089035 105.519653
70 104.552910 9.721220 -10.420293 -177.714203 -24.565960 -106.089035 105.519653
